<mxfile host="65bd71144e">
    <diagram id="WgkGfO66rjRRqaIbRkBg" name="PÃ¡gina-1">
        <mxGraphModel dx="1022" dy="787" grid="1" gridSize="10" guides="1" tooltips="1" connect="1" arrows="1" fold="1" page="1" pageScale="1" pageWidth="827" pageHeight="1169" math="0" shadow="0">
            <root>
                <mxCell id="0"/>
                <mxCell id="1" parent="0"/>
                <mxCell id="2" value="GET (&quot;&lt;span style=&quot;text-align: start; background-color: initial;&quot;&gt;&lt;font color=&quot;#fafafa&quot;&gt;/api/Farmacias/InsertarDatosAleatorios&lt;/font&gt;&lt;/span&gt;&lt;span style=&quot;background-color: initial;&quot;&gt;&quot;)&lt;/span&gt;" style="rounded=1;whiteSpace=wrap;html=1;" vertex="1" parent="1">
                    <mxGeometry x="210" y="140" width="341.67" height="50" as="geometry"/>
                </mxCell>
                <mxCell id="9" style="edgeStyle=none;html=1;exitX=0.5;exitY=1;exitDx=0;exitDy=0;fontColor=#F0F0F0;" edge="1" parent="1" source="4" target="5">
                    <mxGeometry relative="1" as="geometry">
                        <Array as="points">
                            <mxPoint x="380" y="380"/>
                        </Array>
                    </mxGeometry>
                </mxCell>
                <mxCell id="4" value="&lt;div style=&quot;text-align: start;&quot;&gt;&lt;span style=&quot;background-color: initial;&quot;&gt;GET (&quot;&lt;/span&gt;&lt;span style=&quot;background-color: initial;&quot;&gt;/api/Farmacias/CrearFarmacia&lt;/span&gt;&lt;span style=&quot;background-color: initial;&quot;&gt;&quot;)&lt;/span&gt;&lt;/div&gt;" style="rounded=1;whiteSpace=wrap;html=1;" vertex="1" parent="1">
                    <mxGeometry x="210" y="210" width="341.67" height="50" as="geometry"/>
                </mxCell>
                <mxCell id="5" value="&#10;&lt;pre style=&quot;box-sizing: border-box; font-family: monospace; font-size: 12px; max-height: 400px; min-height: 6em; overflow: auto; overflow-wrap: break-word; background: rgb(51, 51, 51); border-radius: 4px; color: white; font-weight: 600; hyphens: auto; margin: 0px; padding: 0.5em; word-break: break-word; font-style: normal; font-variant-ligatures: normal; font-variant-caps: normal; letter-spacing: normal; orphans: 2; text-align: start; text-indent: 0px; text-transform: none; widows: 2; word-spacing: 0px; -webkit-text-stroke-width: 0px; text-decoration-thickness: initial; text-decoration-style: initial; text-decoration-color: initial; display: block;&quot; class=&quot;body-param__example microlight&quot;&gt;&lt;code style=&quot;box-sizing: border-box; font-family: Consolas, monaco, monospace; font-size: 1em; word-break: break-all;&quot; class=&quot;language-json&quot;&gt;&lt;span style=&quot;box-sizing: inherit;&quot;&gt;{&#10;&lt;/span&gt;&lt;span style=&quot;box-sizing: inherit;&quot;&gt;  &lt;/span&gt;&lt;span style=&quot;box-sizing: inherit;&quot; class=&quot;hljs-attr&quot;&gt;&quot;idFarmacia&quot;&lt;/span&gt;&lt;span style=&quot;box-sizing: inherit;&quot;&gt;: &lt;/span&gt;&lt;span style=&quot;box-sizing: inherit; color: rgb(211, 99, 99);&quot;&gt;0&lt;/span&gt;&lt;span style=&quot;box-sizing: inherit;&quot;&gt;,&#10;&lt;/span&gt;&lt;span style=&quot;box-sizing: inherit;&quot;&gt;  &lt;/span&gt;&lt;span style=&quot;box-sizing: inherit;&quot; class=&quot;hljs-attr&quot;&gt;&quot;nombre&quot;&lt;/span&gt;&lt;span style=&quot;box-sizing: inherit;&quot;&gt;: &lt;/span&gt;&lt;span style=&quot;box-sizing: inherit; color: rgb(162, 252, 162);&quot;&gt;&quot;string&quot;&lt;/span&gt;&lt;span style=&quot;box-sizing: inherit;&quot;&gt;,&#10;&lt;/span&gt;&lt;span style=&quot;box-sizing: inherit;&quot;&gt;  &lt;/span&gt;&lt;span style=&quot;box-sizing: inherit;&quot; class=&quot;hljs-attr&quot;&gt;&quot;direccion&quot;&lt;/span&gt;&lt;span style=&quot;box-sizing: inherit;&quot;&gt;: &lt;/span&gt;&lt;span style=&quot;box-sizing: inherit; color: rgb(162, 252, 162);&quot;&gt;&quot;string&quot;&lt;/span&gt;&lt;span style=&quot;box-sizing: inherit;&quot;&gt;,&#10;&lt;/span&gt;&lt;span style=&quot;box-sizing: inherit;&quot;&gt;  &lt;/span&gt;&lt;span style=&quot;box-sizing: inherit;&quot; class=&quot;hljs-attr&quot;&gt;&quot;latitud&quot;&lt;/span&gt;&lt;span style=&quot;box-sizing: inherit;&quot;&gt;: &lt;/span&gt;&lt;span style=&quot;box-sizing: inherit; color: rgb(211, 99, 99);&quot;&gt;0&lt;/span&gt;&lt;span style=&quot;box-sizing: inherit;&quot;&gt;,&#10;&lt;/span&gt;&lt;span style=&quot;box-sizing: inherit;&quot;&gt;  &lt;/span&gt;&lt;span style=&quot;box-sizing: inherit;&quot; class=&quot;hljs-attr&quot;&gt;&quot;longitud&quot;&lt;/span&gt;&lt;span style=&quot;box-sizing: inherit;&quot;&gt;: &lt;/span&gt;&lt;span style=&quot;box-sizing: inherit; color: rgb(211, 99, 99);&quot;&gt;0&lt;/span&gt;&lt;span style=&quot;box-sizing: inherit;&quot;&gt;&#10;&lt;/span&gt;}&lt;/code&gt;&lt;/pre&gt;&#10;&#10;" style="text;html=1;align=center;verticalAlign=middle;resizable=0;points=[];autosize=1;strokeColor=none;fillColor=none;fontColor=#F0F0F0;" vertex="1" parent="1">
                    <mxGeometry x="460" y="290" width="190" height="180" as="geometry"/>
                </mxCell>
                <mxCell id="6" value="Body" style="text;html=1;align=center;verticalAlign=middle;resizable=0;points=[];autosize=1;strokeColor=none;fillColor=none;fontColor=#F0F0F0;" vertex="1" parent="1">
                    <mxGeometry x="470" y="280" width="50" height="30" as="geometry"/>
                </mxCell>
                <mxCell id="10" value="&lt;div style=&quot;text-align: start;&quot;&gt;&lt;span style=&quot;background-color: initial;&quot;&gt;GET (&quot;&lt;/span&gt;&lt;span style=&quot;background-color: initial;&quot;&gt;/api/Farmacias/BuscarFarmaciaById&lt;/span&gt;&lt;span style=&quot;background-color: initial;&quot;&gt;&quot;)&lt;/span&gt;&lt;/div&gt;" style="rounded=1;whiteSpace=wrap;html=1;" vertex="1" parent="1">
                    <mxGeometry x="210" y="460" width="341.67" height="50" as="geometry"/>
                </mxCell>
                <mxCell id="11" value="&lt;br&gt;&lt;pre style=&quot;box-sizing: border-box; font-family: monospace; font-size: 12px; max-height: 400px; min-height: 6em; overflow: auto; overflow-wrap: break-word; background: rgb(51, 51, 51); border-radius: 4px; font-weight: 600; hyphens: auto; margin: 0px; padding: 0.5em; word-break: break-word; font-style: normal; font-variant-ligatures: normal; font-variant-caps: normal; letter-spacing: normal; orphans: 2; text-align: start; text-indent: 0px; text-transform: none; widows: 2; word-spacing: 0px; -webkit-text-stroke-width: 0px; text-decoration-thickness: initial; text-decoration-style: initial; text-decoration-color: initial; display: block;&quot; class=&quot;body-param__example microlight&quot;&gt;&lt;code style=&quot;box-sizing: border-box; font-family: Consolas, monaco, monospace; font-size: 1em; word-break: break-all;&quot; class=&quot;language-json&quot;&gt;&lt;span style=&quot;color: white; box-sizing: inherit;&quot; class=&quot;hljs-attr&quot;&gt;&quot;id&quot;&lt;/span&gt;&lt;span style=&quot;box-sizing: inherit;&quot;&gt;&lt;font color=&quot;#ffffff&quot;&gt;: &lt;/font&gt;&lt;font color=&quot;#d36363&quot;&gt;int&lt;/font&gt;&lt;/span&gt;&lt;span style=&quot;color: white; box-sizing: inherit;&quot;&gt;&lt;br&gt;&lt;/span&gt;&lt;span style=&quot;color: white; box-sizing: inherit;&quot; class=&quot;hljs-attr&quot;&gt;&quot;nombre&quot;&lt;/span&gt;&lt;span style=&quot;color: white; box-sizing: inherit;&quot;&gt;: &lt;/span&gt;&lt;span style=&quot;color: rgb(162, 252, 162); box-sizing: inherit;&quot;&gt;&quot;string&quot;&lt;/span&gt;&lt;font color=&quot;#ffffff&quot;&gt;&lt;br&gt;&lt;/font&gt;&lt;/code&gt;&lt;/pre&gt;" style="text;html=1;align=center;verticalAlign=middle;resizable=0;points=[];autosize=1;strokeColor=none;fillColor=none;fontColor=#F0F0F0;" vertex="1" parent="1">
                    <mxGeometry x="470" y="540" width="150" height="100" as="geometry"/>
                </mxCell>
                <mxCell id="12" value="Parametros" style="text;html=1;align=center;verticalAlign=middle;resizable=0;points=[];autosize=1;strokeColor=none;fillColor=none;fontColor=#F0F0F0;" vertex="1" parent="1">
                    <mxGeometry x="470" y="529" width="90" height="30" as="geometry"/>
                </mxCell>
                <mxCell id="13" style="edgeStyle=none;html=1;exitX=0.5;exitY=1;exitDx=0;exitDy=0;fontColor=#F0F0F0;" edge="1" parent="1" target="11">
                    <mxGeometry relative="1" as="geometry">
                        <mxPoint x="380.83500000000004" y="510" as="sourcePoint"/>
                        <mxPoint x="460" y="630" as="targetPoint"/>
                        <Array as="points">
                            <mxPoint x="380" y="590"/>
                        </Array>
                    </mxGeometry>
                </mxCell>
                <mxCell id="15" value="&lt;div style=&quot;text-align: start;&quot;&gt;&lt;span style=&quot;background-color: initial;&quot;&gt;GET (&quot;&lt;/span&gt;&lt;span style=&quot;background-color: initial;&quot;&gt;/api/Farmacias/BuscarFarmaciaCercana&lt;/span&gt;&lt;span style=&quot;background-color: initial;&quot;&gt;&quot;)&lt;/span&gt;&lt;/div&gt;" style="rounded=1;whiteSpace=wrap;html=1;" vertex="1" parent="1">
                    <mxGeometry x="210" y="660" width="341.67" height="50" as="geometry"/>
                </mxCell>
                <mxCell id="16" value="&lt;br&gt;&lt;pre style=&quot;box-sizing: border-box; font-family: monospace; font-size: 12px; max-height: 400px; min-height: 6em; overflow: auto; overflow-wrap: break-word; background: rgb(51, 51, 51); border-radius: 4px; font-weight: 600; hyphens: auto; margin: 0px; padding: 0.5em; word-break: break-word; font-style: normal; font-variant-ligatures: normal; font-variant-caps: normal; letter-spacing: normal; orphans: 2; text-align: start; text-indent: 0px; text-transform: none; widows: 2; word-spacing: 0px; -webkit-text-stroke-width: 0px; text-decoration-thickness: initial; text-decoration-style: initial; text-decoration-color: initial; display: block;&quot; class=&quot;body-param__example microlight&quot;&gt;&lt;code style=&quot;box-sizing: border-box; font-family: Consolas, monaco, monospace; font-size: 1em; word-break: break-all;&quot; class=&quot;language-json&quot;&gt;&lt;span style=&quot;color: white; box-sizing: inherit;&quot; class=&quot;hljs-attr&quot;&gt;&quot;latitud&quot;&lt;/span&gt;&lt;span style=&quot;box-sizing: inherit;&quot;&gt;&lt;font color=&quot;#ffffff&quot;&gt;: &lt;/font&gt;&lt;font color=&quot;#d36363&quot;&gt;double&lt;/font&gt;&lt;/span&gt;&lt;span style=&quot;color: white; box-sizing: inherit;&quot;&gt;&lt;br&gt;&lt;/span&gt;&lt;span style=&quot;color: white; box-sizing: inherit;&quot; class=&quot;hljs-attr&quot;&gt;&quot;longitud&quot;&lt;/span&gt;&lt;span style=&quot;color: white; box-sizing: inherit;&quot;&gt;: &lt;/span&gt;&lt;/code&gt;&lt;font color=&quot;#d36363&quot;&gt;double&lt;/font&gt;&lt;/pre&gt;" style="text;html=1;align=center;verticalAlign=middle;resizable=0;points=[];autosize=1;strokeColor=none;fillColor=none;fontColor=#F0F0F0;" vertex="1" parent="1">
                    <mxGeometry x="465" y="740" width="160" height="100" as="geometry"/>
                </mxCell>
                <mxCell id="17" value="Parametros" style="text;html=1;align=center;verticalAlign=middle;resizable=0;points=[];autosize=1;strokeColor=none;fillColor=none;fontColor=#F0F0F0;" vertex="1" parent="1">
                    <mxGeometry x="470" y="729" width="90" height="30" as="geometry"/>
                </mxCell>
                <mxCell id="18" style="edgeStyle=none;html=1;exitX=0.5;exitY=1;exitDx=0;exitDy=0;fontColor=#F0F0F0;" edge="1" parent="1" target="16">
                    <mxGeometry relative="1" as="geometry">
                        <mxPoint x="380.83500000000004" y="710" as="sourcePoint"/>
                        <mxPoint x="460" y="830" as="targetPoint"/>
                        <Array as="points">
                            <mxPoint x="380" y="790"/>
                        </Array>
                    </mxGeometry>
                </mxCell>
                <mxCell id="20" value="&lt;span style=&quot;color: rgb(250, 250, 250);&quot;&gt;FARMACIAS API&lt;/span&gt;" style="whiteSpace=wrap;html=1;fontColor=#F0F0F0;" vertex="1" parent="1">
                    <mxGeometry x="330" y="50" width="110" height="40" as="geometry"/>
                </mxCell>
            </root>
        </mxGraphModel>
    </diagram>
</mxfile>